<?xml version="1.0" encoding="UTF-8"?>
<svg width="25px" height="25px" viewBox="0 0 25 25" version="1.1" xmlns="http://www.w3.org/2000/svg" xmlns:xlink="http://www.w3.org/1999/xlink">
    <title>Combined Shape</title>
    <g id="Page-1" stroke="none" stroke-width="1" fill="none" fill-rule="evenodd">
        <g id="Dashboard" transform="translate(-24.000000, -60.000000)" fill="#000000">
            <path d="M37.4411765,60 C38.545746,60 39.4411765,60.8954305 39.4411765,62 L39.4420096,64.1788407 C39.7367274,64.283042 40.0242571,64.402457 40.3036551,64.5361422 L41.8448954,62.995653 C42.625944,62.2146044 43.8922739,62.2146044 44.6733225,62.995653 L46.004347,64.3266775 C46.7853956,65.1077261 46.7853956,66.374056 46.004347,67.1551046 L44.4638578,68.6963449 C44.597543,68.9757429 44.716958,69.2632726 44.8211593,69.5579904 L47,69.5588235 C48.1045695,69.5588235 49,70.454254 49,71.5588235 L49,73.4411765 C49,74.545746 48.1045695,75.4411765 47,75.4411765 L44.8211593,75.4420096 C44.716958,75.7367274 44.597543,76.0242571 44.4638578,76.3036551 L46.004347,77.8448954 C46.7853956,78.625944 46.7853956,79.8922739 46.004347,80.6733225 L44.6733225,82.004347 C43.8922739,82.7853956 42.625944,82.7853956 41.8448954,82.004347 L40.3036551,80.4638578 C40.0242571,80.597543 39.7367274,80.716958 39.4420096,80.8211593 L39.4411765,83 C39.4411765,84.1045695 38.545746,85 37.4411765,85 L35.5588235,85 C34.454254,85 33.5588235,84.1045695 33.5588235,83 L33.5579904,80.8211593 C33.2632726,80.716958 32.9757429,80.597543 32.6963449,80.4638578 L31.1551046,82.004347 C30.374056,82.7853956 29.1077261,82.7853956 28.3266775,82.004347 L26.995653,80.6733225 C26.2146044,79.8922739 26.2146044,78.625944 26.995653,77.8448954 L28.5361422,76.3036551 C28.402457,76.0242571 28.283042,75.7367274 28.1788407,75.4420096 L26,75.4411765 C24.8954305,75.4411765 24,74.545746 24,73.4411765 L24,71.5588235 C24,70.454254 24.8954305,69.5588235 26,69.5588235 L28.1788407,69.5579904 C28.283042,69.2632726 28.402457,68.9757429 28.5361422,68.6963449 L26.995653,67.1551046 C26.2146044,66.374056 26.2146044,65.1077261 26.995653,64.3266775 L28.3266775,62.995653 C29.1077261,62.2146044 30.374056,62.2146044 31.1551046,62.995653 L32.6963449,64.5361422 C32.9757429,64.402457 33.2632726,64.283042 33.5579904,64.1788407 L33.5588235,62 C33.5588235,60.8954305 34.454254,60 35.5588235,60 L37.4411765,60 Z M36.5,68 C34.0147186,68 32,70.0147186 32,72.5 C32,74.9852814 34.0147186,77 36.5,77 C38.9852814,77 41,74.9852814 41,72.5 C41,70.0147186 38.9852814,68 36.5,68 Z" id="Combined-Shape"></path>
        </g>
    </g>
</svg>